<svg width="47" height="37" viewBox="0 0 47 37" fill="none" xmlns="http://www.w3.org/2000/svg">
<path d="M14.2029 0.763672C9.49079 0.763672 5.65723 4.78664 5.65723 9.73149C5.65723 14.6763 9.49079 18.6993 14.2029 18.6993C18.9151 18.6993 22.7487 14.6763 22.7487 9.73149C22.7487 4.78664 18.9152 0.763672 14.2029 0.763672Z" fill="#526A77"/>
<path d="M33.6309 2.04687C33.6117 2.04687 33.5921 2.04697 33.5728 2.04706C31.5952 2.06326 29.7481 2.88966 28.3717 4.37422C27.0194 5.83254 26.2841 7.75641 26.3011 9.79133C26.3181 11.8263 27.0854 13.7378 28.4617 15.174C29.8489 16.6212 31.6864 17.4161 33.642 17.4161C33.6617 17.4161 33.6813 17.416 33.7011 17.4159C35.6786 17.3997 37.5258 16.5732 38.9022 15.0887C40.2544 13.6304 40.9897 11.7065 40.9728 9.6715C40.9376 5.45449 37.6498 2.04687 33.6309 2.04687Z" fill="#526A77"/>
<path d="M33.9926 18.8848L33.283 18.8848C29.9783 18.8848 26.9625 20.1283 24.6855 22.1665C25.2552 22.5991 25.7975 23.0707 26.3114 23.5793C27.8275 25.0799 29.0181 26.8284 29.8502 28.7761C30.6001 30.5301 31.028 32.3782 31.1277 34.2816L46.8184 34.2816L46.8184 31.5782C46.8184 24.5794 41.0648 18.8848 33.9926 18.8848Z" fill="#526A77"/>
<path d="M28.3793 34.2806C28.1205 30.1545 26.0073 26.5252 22.8534 24.1992C20.5591 22.5068 17.7134 21.5049 14.6309 21.5049L13.7768 21.5049C6.16782 21.505 -1.98859e-07 27.6095 -4.44182e-07 35.1404L-4.96896e-07 36.7587L28.4067 36.7587L28.4067 35.1404C28.4067 34.8517 28.3976 34.5648 28.3793 34.2806Z" fill="#526A77"/>
</svg>
