<svg width="47" height="36" viewBox="0 0 47 36" fill="none" xmlns="http://www.w3.org/2000/svg">
<path fill-rule="evenodd" clip-rule="evenodd" d="M20.6602 1.88535L20.6602 19.929C20.9086 19.9036 21.1591 19.8908 21.4111 19.8908L23.4367 19.8908C23.073 19.4604 22.8521 18.8953 22.8521 18.2777C22.8521 16.9322 23.8977 15.8385 25.1861 15.8385C26.4762 15.8385 27.5201 16.9322 27.5201 18.2777C27.5201 18.8956 27.2994 19.4609 26.9356 19.8914L28.3152 19.8914C29.365 19.8914 30.2185 20.7938 30.1938 21.9015C30.1766 22.7197 29.6663 23.4109 28.963 23.6889L40.5054 23.6889C41.5006 23.6889 42.3091 22.8454 42.3091 21.8053L42.3091 1.88535C42.3091 0.848758 41.4989 -3.20074e-07 40.5046 -3.04802e-07L22.463 -2.76905e-08C21.4662 -1.238e-08 20.6602 0.848758 20.6602 1.88535ZM40.0575 4.91349C40.0575 6.2608 39.0136 7.35093 37.7235 7.35093C36.435 7.35093 35.3878 6.2608 35.3878 4.91349C35.3878 3.56795 36.435 2.47606 37.7235 2.47606C39.0136 2.47518 40.0575 3.56707 40.0575 4.91349ZM33.8169 11.8458C33.8169 13.1931 32.7731 14.2849 31.4829 14.2849C30.1962 14.2849 29.149 13.1931 29.149 11.8458C29.149 10.5002 30.1962 9.40832 31.483 9.40832C32.7731 9.40832 33.8169 10.5002 33.8169 11.8458Z" fill="#526A77"/>
<path d="M0.954977 11.6683C0.425947 11.678 0 12.1098 0 12.6408V30.6278C0 30.8962 0.217836 31.114 0.486241 31.114H5.0997C5.53537 31.114 5.91658 30.8262 6.03522 30.408L10.3394 15.2412C10.6176 14.2609 10.0924 13.2301 9.13355 12.882C7.37141 12.2401 4.66791 11.6061 0.954977 11.6683V11.6683Z" fill="#526A77"/>
<path d="M42.7889 22.3616C38.899 22.3616 31.1191 27.2843 27.2292 27.2843C23.3393 27.2843 18.9631 24.3065 18.9631 24.3065C18.9631 24.3065 24.2028 25.279 27.2292 25.279C30.2556 25.279 31.1191 24.2462 31.1191 22.8478C31.1191 19.4441 25.3387 18.9151 22.4135 18.4697C19.5427 16.8709 18.0509 15.6067 13.2955 15.2041C13.2683 15.4822 13.2255 15.7584 13.1477 16.0327L9.24023 29.803C13.665 31.816 21.2854 35.0038 25.2842 35.0038C31.1191 35.0038 46.6788 27.224 46.6788 25.279C46.6788 23.3341 44.7339 22.3616 42.7889 22.3616Z" fill="#526A77"/>
</svg>
