<svg width="41" height="35" viewBox="0 0 41 35" fill="none" xmlns="http://www.w3.org/2000/svg">
<path d="M39.658 23.8023C38.6441 22.7976 36.9987 22.7948 35.9821 23.8023L32.1674 27.5822C31.7496 27.9954 31.1829 28.2286 30.5921 28.2286L20.6616 28.2286C19.2235 28.2286 18.0582 27.074 18.0582 25.6498C18.0582 24.2233 19.2259 23.0694 20.6616 23.0694L23.6859 23.0694C24.988 23.0694 26.0724 22.0534 26.1007 20.7793C26.1317 19.457 25.0573 18.3797 23.7358 18.3797C19.4302 18.3797 18.9018 18.3795 18.4181 18.3792C18.0098 18.3791 17.6334 18.3789 15.0448 18.3789C12.16 18.3789 9.41654 19.6504 7.56657 21.8591L6.15738 23.6319C6.08349 23.7249 5.97063 23.7791 5.85121 23.7791L1.44547 23.7791C1.01498 23.7791 0.666015 24.1249 0.666015 24.5514L0.666015 33.5245C0.666015 33.9512 1.01498 34.2969 1.44547 34.2969L31.5586 34.2969C32.3162 34.2969 33.0419 33.9988 33.5766 33.469L39.6572 27.4439C40.6729 26.4383 40.6713 24.8094 39.658 23.8023Z" fill="#526A77"/>
<path d="M39.658 23.8023C38.6441 22.7976 36.9987 22.7948 35.9821 23.8023L32.1674 27.5822C31.7496 27.9954 31.1829 28.2286 30.5921 28.2286L20.6616 28.2286C19.2235 28.2286 18.0582 27.074 18.0582 25.6498C18.0582 24.2233 19.2259 23.0694 20.6616 23.0694L23.6859 23.0694C24.988 23.0694 26.0724 22.0534 26.1007 20.7793C26.1317 19.457 25.0573 18.3797 23.7358 18.3797C19.4302 18.3797 18.9018 18.3795 18.4181 18.3792C18.0098 18.3791 17.6334 18.3789 15.0448 18.3789C12.16 18.3789 9.41654 19.6504 7.56657 21.8591L6.15738 23.6319C6.08349 23.7249 5.97063 23.7791 5.85121 23.7791L1.44547 23.7791C1.01498 23.7791 0.666015 24.1249 0.666015 24.5514L0.666015 33.5245C0.666015 33.9512 1.01498 34.2969 1.44547 34.2969L31.5586 34.2969C32.3162 34.2969 33.0419 33.9988 33.5766 33.469L39.6572 27.4439C40.6729 26.4383 40.6713 24.8094 39.658 23.8023Z" stroke="white"/>
<path fill-rule="evenodd" clip-rule="evenodd" d="M18 2.26608L18 18.5889C18.225 18.5659 18.4519 18.5542 18.6801 18.5542L20.5117 18.5543C20.1827 18.1649 19.9829 17.6537 19.9829 17.095C19.9829 15.8778 20.9287 14.8885 22.0943 14.8885C23.2614 14.8885 24.2057 15.8778 24.2057 17.095C24.2057 17.6539 24.0061 18.1653 23.677 18.5548L24.9257 18.5548C25.8754 18.5548 26.6475 19.3711 26.6252 20.3732C26.6096 21.1134 26.148 21.7386 25.5117 21.9901L35.9525 21.9901C36.8528 21.9901 37.5842 21.2271 37.5842 20.2861L37.5842 2.26608C37.5842 1.32835 36.8512 0.560547 35.9518 0.560547L19.6309 0.560547C18.7291 0.560547 18 1.32835 18 2.26608ZM35.5473 5.00542C35.5473 6.22422 34.603 7.21039 33.4359 7.21039C32.2703 7.21039 31.323 6.22422 31.323 5.00542C31.323 3.7882 32.2703 2.80045 33.4359 2.80045C34.603 2.79966 35.5473 3.78741 35.5473 5.00542ZM29.902 11.2765C29.902 12.4953 28.9577 13.4831 27.7906 13.4831C26.6265 13.4831 25.6792 12.4953 25.6792 11.2765C25.6792 10.0593 26.6265 9.07155 27.7906 9.07155C28.9577 9.07155 29.902 10.0593 29.902 11.2765Z" fill="#526A77"/>
</svg>
