<svg width="36" height="36" viewBox="0 0 36 36" fill="none" xmlns="http://www.w3.org/2000/svg">
<path d="M0.332031 8.76953L0.332031 27.164C0.332031 27.4433 0.497453 27.6991 0.758664 27.8247L17.3356 35.7494L17.3356 16.545L0.332031 8.76953ZM4.96935 26.425C4.07282 26.425 3.4236 25.4925 3.4236 24.2081C3.4236 22.9238 4.07282 21.9912 4.96935 21.9912C5.86587 21.9912 6.5151 22.9238 6.5151 24.2081C6.51517 25.4925 5.86594 26.425 4.96935 26.425ZM9.60667 23.8711C8.71014 23.8711 8.06092 22.9386 8.06092 21.6542C8.06092 20.3699 8.71014 19.4373 9.60667 19.4373C10.5032 19.4373 11.1524 20.3699 11.1524 21.6542C11.1525 22.9386 10.5033 23.8711 9.60667 23.8711ZM14.244 21.2523C13.3475 21.2523 12.6982 20.3197 12.6982 19.0354C12.6982 17.751 13.3475 16.8184 14.244 16.8184C15.1405 16.8184 15.7897 17.751 15.7897 19.0354C15.7898 20.3196 15.1406 21.2523 14.244 21.2523Z" fill="white"/>
<path d="M18.4288 0.627054C18.2248 0.538378 17.9929 0.538378 17.7889 0.627054L1.5459 7.6857L18.1089 15.2601L34.6718 7.6857L18.4288 0.627054ZM18.1089 10.1672C16.7656 10.1672 15.7902 9.54645 15.7902 8.68927C15.7902 7.83209 16.7656 7.21135 18.1089 7.21135C19.4522 7.21135 20.4275 7.83209 20.4275 8.68927C20.4275 9.54645 19.4521 10.1672 18.1089 10.1672Z" fill="white"/>
<path d="M18.8809 16.545L18.8809 35.7494L35.4577 27.8247C35.719 27.6991 35.8844 27.4433 35.8844 27.164L35.8844 8.76953L18.8809 16.545ZM22.7453 21.9912C21.8503 21.9912 21.1996 21.0586 21.1996 19.7743C21.1996 18.4899 21.8503 17.5574 22.7453 17.5574C23.6403 17.5574 24.2911 18.4899 24.2911 19.7743C24.2911 21.0586 23.6403 21.9912 22.7453 21.9912ZM30.4742 25.6861C29.5792 25.6861 28.9284 24.7535 28.9284 23.4692C28.9284 22.1848 29.5792 21.2523 30.4742 21.2523C31.3692 21.2523 32.0199 22.1848 32.0199 23.4692C32.02 24.7535 31.3692 25.6861 30.4742 25.6861Z" fill="white"/>
</svg>
