<svg width="36" height="36" viewBox="0 0 36 36" fill="none" xmlns="http://www.w3.org/2000/svg">
<g opacity="0.2">
<path d="M24.7012 21.1423C28.992 15.2631 27.5569 7.12209 21.498 2.95959C15.4391 -1.20291 7.04922 0.188567 2.75948 6.06878C-1.53025 11.948 -0.0962412 20.088 5.96372 24.2505C10.2883 27.2215 16.0059 27.4502 20.5673 24.8363L30.4783 34.3957C31.5484 35.4888 33.3289 35.5325 34.4554 34.4941C35.5819 33.4568 35.627 31.7291 34.5579 30.636C34.5241 30.6012 34.4913 30.5694 34.4554 30.5365L24.7012 21.1423ZM13.7221 22.0335C8.93425 22.0345 5.05247 18.2708 5.0494 13.6249C5.04837 8.97905 8.92707 5.21241 13.716 5.21042C18.4978 5.20843 22.3775 8.96612 22.3867 13.606C22.3949 18.2529 18.5183 22.0255 13.7283 22.0335C13.7263 22.0335 13.7252 22.0335 13.7221 22.0335Z" fill="white"/>
</g>
</svg>
